<svg version="1.2" xmlns="http://www.w3.org/2000/svg" viewBox="0 0 1204 299" width="1204" height="299">
	<style>
		.s0 { fill: #edede2 } 
	</style>
	<g>
		<path class="s0" d="m330.3-0.3h-24c-11.9 0-23.1 4.6-31.6 12.9l-21.9 21.4h-182.1c-37.9 0-68.7 30.8-68.7 68.7v165.6c0 16.5 13.4 30 30 30h23.7c12.1 0 23.5-4.7 32.2-13.2l21.6-21.2h182.1c37.9 0 68.7-30.8 68.7-68.7v-165.6c-0.1-16.5-13.5-29.9-30-29.9zm5.1 62.7c0 2.8-2.3 5.1-5.1 5.1h-69.8c-3.4 0-6.7 1.3-9.2 3.8l-25.1 24.6c-3.9 3.9-9.2 6-14.8 6h-133.3c-4.6 0-8.3 3.7-8.3 8.3v26.3c0 4.6 3.7 8.3 8.3 8.3h101.6c3.4 0 6.7-1.3 9.2-3.8l25.1-24.6c3.9-3.9 9.2-6 14.8-6h62.8c24.2 0 43.8 19.6 43.8 43.8v41c0 24.2-19.6 43.8-43.8 43.8h-186.9c-3.4 0-6.7 1.3-9.2 3.8l-25.1 24.6c-3.9 3.9-9.2 6-14.8 6h-23.6c-2.8 0-5.1-2.3-5.1-5.1v-32.8c0-2.8 2.3-5.1 5.1-5.1h69.8c3.4 0 6.7-1.3 9.2-3.8l25.1-24.6c3.9-3.9 9.2-6 14.8-6h133.4c4.6 0 8.3-3.7 8.3-8.3v-26.3c0-4.6-3.7-8.3-8.3-8.3h-101.7c-3.4 0-6.7 1.3-9.2 3.8l-25.1 24.6c-3.9 3.9-9.2 6-14.8 6h-62.8c-24.2 0-43.8-19.6-43.8-43.8v-41c0-24.2 19.6-43.8 43.8-43.8h186.9c3.4 0 6.7-1.3 9.2-3.8l25.3-24.8c3.8-3.7 8.9-5.8 14.2-5.8h24c2.8 0 5.1 2.3 5.1 5.1z"/>
		<g>
			<path class="s0" d="m444 182.9v1.9c0 11.5 2.1 17.7 7.2 20.7 6.4 3.8 20.4 5.4 46.7 5.4 22.3 0 36.2-0.8 55.3-3.2 10.5-1.3 15.6-3.2 18.8-7 3.5-4.3 5.4-9.7 5.4-15.3 0-10.5-4.6-15.3-17.2-18.2-7-1.6-7-1.6-56.6-1.9h-25.5c-36.8 0-52.6-3.2-62.8-12.3-8.3-7.5-12.3-18.8-12.3-34.6 0-19.9 4.8-36.2 13.2-43.7 12.3-11.3 39.7-15.6 98.7-15.6 46.7 0 64.4 2.1 79.4 9.9 12.6 6.4 17.4 18.2 18 44.8h-40.3c-0.3-10.5-2.7-15.8-8.3-18.5-7.5-3.5-24.7-5.6-44.5-5.6-33.8 0-57.4 2.1-65.5 6.2-6.4 3-9.7 9.1-9.7 17.4 0 7.8 2.4 12.9 7.5 15.8 6.2 3.5 16.4 4.6 44.3 4.6h30.6c53.7 0 70 3 81.3 15 7.5 7.8 11 19.6 11 37.3 0 18.8-4 31.7-12.9 40.2-11.8 11.3-34.9 15-95.3 15-64.4 0-84.5-3-95.8-13.7-8-7.5-11.5-18.5-11.5-35.4 0-1.9 0-5.6 0.3-9.1h40.5z"/>
			<path class="s0" d="m650 113.7l37.3 100.9 37.6-100.9h38.1l37.3 100.9 38.1-100.9h37.6l-50.7 125.9h-49.4l-31.9-89.9-32.5 89.9h-48.8l-50.4-125.9z"/>
			<path class="s0" d="m875.2 150.2c0.5-14 3.5-21.2 11.3-27.4 11-8.9 26-11.5 62.5-11.5 48.6 0 64.4 3 74.6 14.2 7.5 8.3 9.4 15.8 9.4 36.2v77.8h-35.4v-20.1c-4.6 17.4-17.2 22.5-56.1 22.5-33.8 0-48.3-1.6-57.2-6.7-10.2-5.6-14.8-15.8-14.8-32.5 0-34.6 12.9-41.6 76.2-41.6 35.7 0 45.9 3.2 51.3 16.4v-13.7c0-25.5-5.1-28.7-43.7-28.7-36.2 0-41.1 1.6-42.4 15h-35.7zm36.5 37c-4.3 1.9-7 7.2-7 13.7 0 9.9 4.8 14.8 16.9 16.6 4.3 0.5 12.9 0.8 30.3 0.8 36.8 0 45.4-3.5 45.4-18.5 0-6.2-2.4-11-6.7-12.6-6.7-3-19.3-4.3-40.8-4.3-19.9 0-31.7 1.4-38.1 4.3z"/>
			<path class="s0" d="m1067.4 113.7l47.5 101.4 47-101.4h38.9l-70.3 145.4c-8 16.9-11.3 22.3-17.2 27.9-7.8 7.5-20.9 11.3-38.9 11.3-5.4 0-8.6-0.3-14.8-0.8v-25c2.7 0.3 3.8 0.3 5.6 0.3 19.9 0 26-4 35.2-23.3l4.8-9.9h-14.8l-62-125.9z"/>
		</g>
		<g>
			<path class="s0" d="m838.1 25.2h8.2l25.5 36.4 25.5-36.4h7.9v42.3h-5.1v-38.1l-26.6 38.1h-3.7l-26.6-38.1v38.1h-5.1z"/>
			<path class="s0" d="m942.4 25.2h42.1v4.2h-37v14.1h35.7v4h-35.7v15.7h37.3v4.2h-42.4z"/>
			<path class="s0" d="m1019.6 25.2h32.9c9.3 0 14 1.7 16.5 6.1 1.9 3.1 2.8 8.1 2.8 15 0 6.9-0.9 11.9-2.8 15-2.5 4.4-7.2 6.1-16.5 6.1h-32.9zm33.3 38c6 0 9.8-1.4 11.5-4.1 1.5-2.4 2.2-6.3 2.2-12.5 0-6.5-0.8-11-2.3-13.3-1.7-2.6-5.3-3.8-11.8-3.8h-27.8v33.8h28.2z"/>
			<path class="s0" d="m1107.7 25.2h5.1v42.3h-5.1z"/>
			<path class="s0" d="m1156.3 58l-5.6 9.5h-5.6l24.9-42.3h7.2l24.9 42.3h-5.6l-5.6-9.5zm17.3-29.2l-14.9 25.2h29.8z"/>
		</g>
	</g>
</svg>